<?xml version="1.0" encoding="UTF-8"?>
<svg width="15px" height="27px" viewBox="0 0 15 27" version="1.1" xmlns="http://www.w3.org/2000/svg" xmlns:xlink="http://www.w3.org/1999/xlink">
    <title>Group</title>
    <g id="final" stroke="none" stroke-width="1" fill="none" fill-rule="evenodd">
        <g id="Cateogries-Copy-2" transform="translate(-96.000000, -605.000000)" fill="#FFFFFF" fill-rule="nonzero">
            <g id="Group" transform="translate(96.000000, 605.000000)">
                <path d="M7.20640849,5.4 C7.94979388,5.4 8.58457214,5.13675534 9.11074329,4.61026602 C9.63691443,4.0837767 9.9,3.44466092 9.9,2.6929187 C9.9,1.94192581 9.63691443,1.30535781 9.11074329,0.783214687 C8.58457214,0.261071562 7.94979388,0 7.20640849,0 C6.45447845,0 5.81542786,0.261071562 5.28925671,0.783214687 C4.76308557,1.30535781 4.5,1.94192581 4.5,2.6929187 C4.5,3.44466092 4.76308557,4.0837767 5.28925671,4.61026602 C5.81542786,5.13675534 6.45447845,5.4 7.20640849,5.4 Z" id="Path"></path>
                <path d="M5.61851926,27 C5.95083402,27 6.23116515,26.8861118 6.45951266,26.6583353 C6.68786016,26.4305589 6.80203391,26.1539527 6.80203391,25.8285168 L6.80203391,21.0228565 C6.80203391,20.7631956 6.9384132,20.6333652 7.21117177,20.6333652 C7.46622445,20.6333652 7.59375078,20.7631956 7.59375078,21.0228565 L7.59375078,25.8285168 C7.59375078,26.1539527 7.70792454,26.4305589 7.93627204,26.6583353 C8.16461955,26.8861118 8.44546283,27 8.7788019,27 C9.11097033,27 9.39360616,26.8863267 9.62670938,26.6589802 C9.8598126,26.4316336 9.97636421,26.1548125 9.97636421,25.8285168 L9.97636421,21.0228565 L11.5637489,21.0228565 C11.8943077,21.0228565 12.1258012,20.9050633 12.2582296,20.669477 C12.390658,20.4338906 12.4049252,20.1546692 12.3010311,19.8318128 L9.87210429,12.2216862 C9.81591369,12.0382613 9.84192379,11.895892 9.95013461,11.7945785 C10.0583454,11.6932649 10.1873716,11.6563649 10.3372133,11.6838787 C10.4870549,11.7113924 10.59051,11.8218772 10.6475786,12.0153332 L12.1673589,16.7681156 C12.2806181,17.1349654 12.4753829,17.3802962 12.7516534,17.504108 C13.0279239,17.6279198 13.3086574,17.6510628 13.593854,17.5735371 C13.8790506,17.4960115 14.1012523,17.3357296 14.260459,17.0926917 C14.4196657,16.8496537 14.4426395,16.5447098 14.3293803,16.17786 L12.9232981,11.7689993 C12.6142498,10.804299 12.268619,9.98143062 11.8864059,9.30039408 C11.5041927,8.61935754 10.9847222,8.09903272 10.3279945,7.73941963 C9.67126677,7.37980654 8.78019203,7.2 7.65477027,7.2 L6.74101443,7.2 C5.61661697,7.2 4.7260178,7.37980654 4.06921692,7.73941963 C3.41241604,8.09903272 2.89294559,8.61935754 2.51080556,9.30039408 C2.12866554,9.98143062 1.78680276,10.804299 1.48521724,11.7689993 L0.0791351046,16.17786 C-0.0426112101,16.5447098 -0.0238810079,16.8496537 0.135325711,17.0926917 C0.294532431,17.3357296 0.516953582,17.4960115 0.802589167,17.5735371 C1.08822475,17.6510628 1.36917779,17.6279198 1.64544827,17.504108 C1.92171875,17.3802962 2.12028816,17.1349654 2.2411565,16.7681156 L3.76093682,12.0153332 C3.8180054,11.8218772 3.92171658,11.7113924 4.07207035,11.6838787 C4.22242412,11.6563649 4.35166984,11.6932649 4.45980749,11.7945785 C4.56794514,11.895892 4.58923611,12.0382613 4.5236804,12.2216862 L2.10880128,19.8318128 C2.00490719,20.1546692 2.01895484,20.4338906 2.15094424,20.669477 C2.28293363,20.9050633 2.51420773,21.0228565 2.84476653,21.0228565 L4.42073746,21.0228565 L4.42073746,25.8285168 C4.42073746,26.1548125 4.53706957,26.4316336 4.7697338,26.6589802 C5.00239804,26.8863267 5.28532652,27 5.61851926,27 Z" id="Path"></path>
            </g>
        </g>
    </g>
</svg>